<!DOCTYPE svg PUBLIC "-//W3C//DTD SVG 1.1//EN" "http://www.w3.org/Graphics/SVG/1.1/DTD/svg11.dtd">
<!-- Uploaded to: SVG Repo, www.svgrepo.com, Transformed by: SVG Repo Mixer Tools -->
<svg fill="#000000" width="800px" height="800px" viewBox="0 0 24 24" id="download-alt-3" data-name="Flat Line" xmlns="http://www.w3.org/2000/svg" class="icon flat-line">
<g id="SVGRepo_bgCarrier" stroke-width="0"/>
<g id="SVGRepo_tracerCarrier" stroke-linecap="round" stroke-linejoin="round"/>
<g id="SVGRepo_iconCarrier">
<path id="secondary" d="M21,13v7a1,1,0,0,1-1,1H4a1,1,0,0,1-1-1V13H8a4,4,0,0,0,8,0Z" style="fill: #813caf; stroke-width: 2;"/>
<polyline id="primary" points="9 8 12 11 15 8" style="fill: none; stroke: #000000; stroke-linecap: round; stroke-linejoin: round; stroke-width: 2;"/>
<path id="primary-2" data-name="primary" d="M21,13,18.23,4.68A1,1,0,0,0,17.28,4H16" style="fill: none; stroke: #000000; stroke-linecap: round; stroke-linejoin: round; stroke-width: 2;"/>
<path id="primary-3" data-name="primary" d="M8,4H6.72a1,1,0,0,0-1,.68L3,13" style="fill: none; stroke: #000000; stroke-linecap: round; stroke-linejoin: round; stroke-width: 2;"/>
<path id="primary-4" data-name="primary" d="M12,3v8m4,2a4,4,0,0,1-8,0H3v7a1,1,0,0,0,1,1H20a1,1,0,0,0,1-1V13Z" style="fill: none; stroke: #000000; stroke-linecap: round; stroke-linejoin: round; stroke-width: 2;"/>
</g>
</svg>