<!DOCTYPE svg PUBLIC "-//W3C//DTD SVG 1.1//EN" "http://www.w3.org/Graphics/SVG/1.1/DTD/svg11.dtd">
<!-- Uploaded to: SVG Repo, www.svgrepo.com, Transformed by: SVG Repo Mixer Tools -->
<svg fill="#000000" width="800px" height="800px" viewBox="0 0 24 24" id="upload-alt-3" data-name="Flat Color" xmlns="http://www.w3.org/2000/svg" class="icon flat-color">
<g id="SVGRepo_bgCarrier" stroke-width="0"/>
<g id="SVGRepo_tracerCarrier" stroke-linecap="round" stroke-linejoin="round"/>
<g id="SVGRepo_iconCarrier">
<path id="secondary" d="M15.71,5.29l-3-3a1,1,0,0,0-1.42,0l-3,3A1,1,0,0,0,9.71,6.71L11,5.41V11a1,1,0,0,0,2,0V5.41l1.29,1.3a1,1,0,0,0,1.42,0A1,1,0,0,0,15.71,5.29Z" style="fill: #503d57;"/>
<path id="primary" d="M22,12.68l-3-9a1,1,0,0,0-1.9.64L19.61,12H16a1,1,0,0,0-1,1,3,3,0,0,1-6,0,1,1,0,0,0-1-1H4.39L7,4.32a1,1,0,1,0-1.9-.64l-3,9A1.19,1.19,0,0,0,2,13v7a2,2,0,0,0,2,2H20a2,2,0,0,0,2-2V13A1.19,1.19,0,0,0,22,12.68Z" style="fill: #73339e;"/>
</g>
</svg>