<!DOCTYPE svg PUBLIC "-//W3C//DTD SVG 1.1//EN" "http://www.w3.org/Graphics/SVG/1.1/DTD/svg11.dtd">
<!-- Uploaded to: SVG Repo, www.svgrepo.com, Transformed by: SVG Repo Mixer Tools -->
<svg height="800px" width="800px" version="1.1" id="Layer_1" xmlns="http://www.w3.org/2000/svg" xmlns:xlink="http://www.w3.org/1999/xlink" viewBox="0 0 511.999 511.999" xml:space="preserve" fill="#000000">
<g id="SVGRepo_bgCarrier" stroke-width="0"/>
<g id="SVGRepo_tracerCarrier" stroke-linecap="round" stroke-linejoin="round"/>
<g id="SVGRepo_iconCarrier"> <path style="fill:#734195;" d="M484.437,424.963c6.974,0,12.634,5.66,12.634,12.634c0,6.987-5.66,12.634-12.634,12.634H156.759 c-11.813,0-22.918-4.599-31.269-12.95l-74.693-74.693c-14.327-14.327-22.211-33.354-22.211-53.606s7.884-39.279,22.211-53.606 L298.791,7.381c9.855-9.842,25.875-9.842,35.729,0l155.147,155.159c9.855,9.855,9.855,25.887,0,35.742L262.961,424.963H484.437z M282.228,369.967l189.574-189.562L316.656,25.259L127.081,214.82L282.228,369.967z M227.232,424.963l37.132-37.132L109.217,232.685 l-40.555,40.568c-19.709,19.697-19.709,51.762,0,71.458l74.705,74.705c3.575,3.575,8.339,5.546,13.392,5.546H227.232z"/> <polygon style="fill:#f09999;" points="471.802,180.405 282.228,369.967 127.081,214.822 316.656,25.26 "/> <path style="fill:#FFFFFF;" d="M264.363,387.833l-37.132,37.132h-70.473c-5.054,0-9.817-1.971-13.392-5.546l-74.705-74.705 c-19.709-19.697-19.709-51.762,0-71.458l40.555-40.568L264.363,387.833z"/> <g> <path style="fill:#734195;" d="M114.207,467.363c4.927,4.94,4.927,12.937,0,17.877l-23.07,23.07 c-2.476,2.464-5.711,3.689-8.945,3.689c-3.222,0-6.456-1.225-8.932-3.689c-4.927-4.94-4.927-12.937,0-17.877l23.07-23.07 C101.27,462.436,109.267,462.436,114.207,467.363z"/> <path style="fill:#734195;" d="M60.197,418.646c6.974,0,12.634,5.66,12.634,12.634c0,6.987-5.66,12.634-12.634,12.634H27.563 c-6.974,0-12.634-5.647-12.634-12.634c0-6.974,5.66-12.634,12.634-12.634H60.197z"/> </g> </g>
</svg>