<!DOCTYPE svg PUBLIC "-//W3C//DTD SVG 1.1//EN" "http://www.w3.org/Graphics/SVG/1.1/DTD/svg11.dtd">
<!-- Uploaded to: SVG Repo, www.svgrepo.com, Transformed by: SVG Repo Mixer Tools -->
<svg width="800px" height="800px" viewBox="0 0 64 64" fill="none" xmlns="http://www.w3.org/2000/svg">
<g id="SVGRepo_bgCarrier" stroke-width="0"/>
<g id="SVGRepo_tracerCarrier" stroke-linecap="round" stroke-linejoin="round"/>
<g id="SVGRepo_iconCarrier"> <path d="M38.86 39.6011V48.4311V54.1011L53.31 39.6011H47.66H38.86Z" fill="#57228c"/> <path d="M48.48 9.35107H14.56C12.9687 9.35107 11.4426 9.98321 10.3174 11.1084C9.19213 12.2336 8.56 13.7598 8.56 15.3511V49.2711C8.56 50.8624 9.19213 52.3885 10.3174 53.5137C11.4426 54.6389 12.9687 55.2711 14.56 55.2711H34.86V37.6011C34.86 37.0706 35.0707 36.5619 35.4458 36.1869C35.8208 35.8118 36.3296 35.6011 36.86 35.6011H54.48V15.3511C54.48 13.7598 53.8478 12.2336 52.7226 11.1084C51.5974 9.98321 50.0713 9.35107 48.48 9.35107Z" fill="#b4a4c1"/> </g>
</svg>